<?xml version="1.0" encoding="utf-8"?>
<!-- Generator: Adobe Illustrator 19.0.0, SVG Export Plug-In . SVG Version: 6.00 Build 0)  -->
<svg version="1.1" id="Capa_1" xmlns="http://www.w3.org/2000/svg" xmlns:xlink="http://www.w3.org/1999/xlink" x="0px" y="0px"
	 viewBox="-175 53.1 489.2 489.2" style="enable-background:new -175 53.1 489.2 489.2;" xml:space="preserve">
<style type="text/css">
	.st0{fill:#010101;}
</style>
<path class="st0" d="M306,297.7c0-6.8-5.5-12.3-12.3-12.3H-125l73.6-73.6c4.8-4.8,4.8-12.5,0-17.3c-4.8-4.8-12.5-4.8-17.3,0
	l-94.5,94.5c-4.8,4.8-4.8,12.5,0,17.3l94.5,94.5c2.4,2.4,5.5,3.6,8.7,3.6s6.3-1.2,8.7-3.6c4.8-4.8,4.8-12.5,0-17.3l-73.6-73.6h418.8
	C300.5,309.9,306,304.5,306,297.7z"/>
</svg>
